<svg width="100" height="100" viewBox="0 0 100 100" fill="none" xmlns="http://www.w3.org/2000/svg">
<path d="M40.9188 46.5947C40.9188 47.1069 40.9742 47.5222 41.0711 47.8267C41.1818 48.1312 41.3202 48.4635 41.514 48.8234C41.5832 48.9341 41.6109 49.0449 41.6109 49.1417C41.6109 49.2802 41.5279 49.4186 41.3479 49.557L40.4758 50.1384C40.3513 50.2215 40.2267 50.263 40.1159 50.263C39.9775 50.263 39.8391 50.1938 39.7007 50.0692C39.5069 49.8616 39.3407 49.6401 39.2023 49.4186C39.0639 49.1833 38.9255 48.9203 38.7732 48.6019C37.6935 49.8754 36.3369 50.5122 34.7035 50.5122C33.5407 50.5122 32.6133 50.1799 31.935 49.5155C31.2567 48.8511 30.9106 47.9651 30.9106 46.8577C30.9106 45.6811 31.3259 44.726 32.1703 44.0062C33.0147 43.2864 34.136 42.9264 35.5617 42.9264C36.0324 42.9264 36.5169 42.968 37.029 43.0372C37.5412 43.1064 38.0672 43.2171 38.6209 43.3417V42.3312C38.6209 41.2792 38.3995 40.5455 37.9703 40.1164C37.5274 39.6873 36.7799 39.4797 35.714 39.4797C35.2295 39.4797 34.7312 39.535 34.219 39.6596C33.7068 39.7842 33.2085 39.9365 32.724 40.1303C32.5025 40.2272 32.3364 40.2825 32.2395 40.3102C32.1426 40.3379 32.0734 40.3517 32.018 40.3517C31.8243 40.3517 31.7274 40.2133 31.7274 39.9226V39.2443C31.7274 39.0229 31.755 38.8567 31.8243 38.7598C31.8935 38.6629 32.018 38.566 32.2118 38.4691C32.6963 38.22 33.2777 38.0123 33.956 37.8462C34.6343 37.6663 35.3541 37.5832 36.1154 37.5832C37.7627 37.5832 38.967 37.957 39.7422 38.7045C40.5035 39.452 40.8911 40.5871 40.8911 42.1097V46.5947H40.9188ZM35.2987 48.6988C35.7555 48.6988 36.2262 48.6157 36.7245 48.4496C37.2228 48.2835 37.6658 47.979 38.0396 47.5637C38.261 47.3007 38.4271 47.01 38.5102 46.6778C38.5933 46.3456 38.6486 45.9441 38.6486 45.4735V44.8921C38.2472 44.7952 37.8181 44.7121 37.3751 44.6568C36.9321 44.6014 36.503 44.5737 36.0739 44.5737C35.1465 44.5737 34.4682 44.7537 34.0114 45.1274C33.5546 45.5012 33.3331 46.0272 33.3331 46.7193C33.3331 47.3699 33.4992 47.8544 33.8453 48.1866C34.1775 48.5327 34.662 48.6988 35.2987 48.6988V48.6988ZM46.4143 50.1938C46.1651 50.1938 45.999 50.1523 45.8883 50.0554C45.7775 49.9723 45.6806 49.7785 45.5976 49.5155L42.3446 38.8152C42.2615 38.5384 42.22 38.3584 42.22 38.2615C42.22 38.04 42.3307 37.9154 42.5522 37.9154H43.9088C44.1718 37.9154 44.3517 37.957 44.4486 38.0539C44.5594 38.1369 44.6424 38.3307 44.7255 38.5937L47.051 47.7575L49.2105 38.5937C49.2797 38.3169 49.3627 38.1369 49.4735 38.0539C49.5842 37.9708 49.778 37.9154 50.0272 37.9154H51.1346C51.3976 37.9154 51.5775 37.957 51.6883 38.0539C51.799 38.1369 51.8959 38.3307 51.9513 38.5937L54.1384 47.8682L56.5332 38.5937C56.6162 38.3169 56.7131 38.1369 56.81 38.0539C56.9208 37.9708 57.1007 37.9154 57.3499 37.9154H58.6372C58.8587 37.9154 58.9833 38.0262 58.9833 38.2615C58.9833 38.3307 58.9695 38.3999 58.9556 38.483C58.9418 38.566 58.9141 38.6768 58.8587 38.8291L55.5227 49.5293C55.4396 49.8062 55.3427 49.9861 55.232 50.0692C55.1212 50.1523 54.9413 50.2076 54.706 50.2076H53.5155C53.2525 50.2076 53.0725 50.1661 52.9618 50.0692C52.8511 49.9723 52.7542 49.7923 52.6988 49.5155L50.5532 40.5871L48.4215 49.5017C48.3522 49.7785 48.2692 49.9585 48.1584 50.0554C48.0477 50.1523 47.8539 50.1938 47.6047 50.1938H46.4143ZM64.2019 50.5675C63.4821 50.5675 62.7623 50.4845 62.0702 50.3184C61.3781 50.1523 60.8382 49.9723 60.4783 49.7647C60.2568 49.6401 60.1046 49.5017 60.0492 49.3771C59.9938 49.2525 59.9661 49.1141 59.9661 48.9895V48.2835C59.9661 47.9928 60.0769 47.8544 60.2845 47.8544C60.3676 47.8544 60.4506 47.8682 60.5337 47.8959C60.6167 47.9236 60.7413 47.979 60.8797 48.0343C61.3504 48.242 61.8626 48.4081 62.4024 48.5188C62.9561 48.6296 63.496 48.6849 64.0497 48.6849C64.9218 48.6849 65.6 48.5327 66.0707 48.2281C66.5413 47.9236 66.7905 47.4806 66.7905 46.9131C66.7905 46.5255 66.6659 46.2071 66.4167 45.9441C66.1676 45.6811 65.6969 45.4458 65.0186 45.2243L63.0115 44.6014C62.001 44.283 61.2535 43.8124 60.7967 43.1895C60.3399 42.5804 60.1046 41.9021 60.1046 41.1823C60.1046 40.6009 60.2291 40.0887 60.4783 39.6458C60.7275 39.2028 61.0597 38.8152 61.475 38.5107C61.8902 38.1923 62.3609 37.957 62.9146 37.7909C63.4683 37.6248 64.0497 37.5555 64.6587 37.5555C64.9633 37.5555 65.2817 37.5694 65.5862 37.6109C65.9046 37.6524 66.1953 37.7078 66.486 37.7632C66.7628 37.8324 67.0258 37.9016 67.275 37.9847C67.5241 38.0677 67.7179 38.1508 67.8564 38.2338C68.0502 38.3446 68.1886 38.4553 68.2716 38.5799C68.3547 38.6906 68.3962 38.8429 68.3962 39.0367V39.6873C68.3962 39.978 68.2855 40.1303 68.0779 40.1303C67.9671 40.1303 67.7872 40.0749 67.5518 39.9641C66.7628 39.6042 65.8769 39.4243 64.8941 39.4243C64.105 39.4243 63.4821 39.5489 63.053 39.8119C62.6239 40.0749 62.4024 40.4763 62.4024 41.0439C62.4024 41.4315 62.5408 41.7637 62.8177 42.0267C63.0945 42.2897 63.6067 42.5527 64.3404 42.788L66.306 43.4109C67.3027 43.7293 68.0225 44.1723 68.4516 44.7398C68.8807 45.3074 69.0884 45.958 69.0884 46.6778C69.0884 47.273 68.9638 47.8129 68.7284 48.2835C68.4793 48.7542 68.1471 49.1694 67.7179 49.5017C67.2888 49.8477 66.7767 50.0969 66.1814 50.2768C65.5585 50.4706 64.9079 50.5675 64.2019 50.5675V50.5675Z" fill="#252F3E"/>
<path fill-rule="evenodd" clip-rule="evenodd" d="M66.8182 57.295C62.264 60.6587 55.6473 62.4444 49.958 62.4444C41.9847 62.4444 34.8004 59.4959 29.3741 54.5957C28.945 54.2081 29.3326 53.682 29.8448 53.9866C35.714 57.3919 42.9537 59.4544 50.4425 59.4544C55.495 59.4544 61.0459 58.4024 66.1538 56.2429C66.9151 55.8969 67.5657 56.7413 66.8182 57.295V57.295Z" fill="#FF9900"/>
<path fill-rule="evenodd" clip-rule="evenodd" d="M68.7147 55.1355C68.1333 54.388 64.8664 54.7756 63.3852 54.9556C62.9423 55.0109 62.8731 54.6233 63.2745 54.3327C65.8769 52.5054 70.1543 53.0314 70.6526 53.6405C71.151 54.2634 70.5142 58.5408 68.0779 60.5895C67.7042 60.9079 67.3442 60.7418 67.5104 60.3265C68.0641 58.9561 69.2961 55.8692 68.7147 55.1355V55.1355Z" fill="#FF9900"/>
</svg>
