<svg width="100" height="100" viewBox="0 0 100 100" fill="none" xmlns="http://www.w3.org/2000/svg">
<g clip-path="url(#clip0)">
<path d="M43.1302 52.7594C43.3292 49.2102 45.0644 46.0741 47.6934 43.8582C50.2661 41.6798 53.7215 40.3466 57.5148 40.3466C61.2894 40.3466 64.7447 41.678 67.3174 43.8582C69.9464 46.0741 71.6741 49.2102 71.8806 52.7594C72.0797 56.4025 70.613 59.8014 68.0497 62.3178C65.4207 64.8717 61.7025 66.4867 57.5148 66.4867C53.3271 66.4867 49.5901 64.883 46.9799 62.3178C44.4072 59.8014 42.9424 56.4213 43.149 52.7782L43.1302 52.7594Z" fill="white"/>
<path d="M50.9982 52.3247C51.1005 50.5008 51.9921 48.8892 53.3432 47.7505C54.6653 46.631 56.4409 45.9459 58.3903 45.9459C60.33 45.9459 62.1056 46.6301 63.4277 47.7505C64.7787 48.8892 65.6666 50.5008 65.7727 52.3247C65.875 54.1968 65.1213 55.9435 63.8041 57.2366C62.453 58.5491 60.5423 59.379 58.3903 59.379C56.2383 59.379 54.3179 58.5549 52.9765 57.2366C51.6544 55.9435 50.9017 54.2065 51.0078 52.3343L50.9982 52.3247Z" fill="#265787"/>
<path d="M39.4179 56.1848C39.4304 56.8989 39.6582 58.2885 39.9998 59.3693C40.7178 61.6661 41.9395 63.7892 43.6283 65.6517C45.3653 67.5721 47.5077 69.1161 49.9782 70.2162C52.5741 71.3646 55.3919 71.9533 58.316 71.9533C61.24 71.9494 64.0579 71.3511 66.6538 70.1873C69.1243 69.0775 71.2666 67.5335 73.0037 65.6034C74.7021 63.7216 75.918 61.5986 76.6322 59.3018C76.994 58.1438 77.2228 56.9664 77.3144 55.7891C77.4042 54.6311 77.3666 53.4634 77.2015 52.2957C76.8792 50.0279 76.0917 47.8952 74.8855 45.9651C73.7853 44.1798 72.3571 42.6261 70.6586 41.3137L70.6625 41.3108L53.5816 28.1865C53.5661 28.1749 53.5536 28.1623 53.5372 28.1517C52.4177 27.2909 50.5263 27.2938 49.3007 28.1566C48.0558 29.0289 47.9111 30.4726 49.0209 31.3797L49.016 31.3846L56.1476 37.1844L34.4345 37.2075H34.4055C32.6106 37.2095 30.8832 38.3849 30.5454 39.8807C30.1942 41.3958 31.414 42.6599 33.2861 42.6599L33.2832 42.6667L44.2845 42.6455L24.598 57.6999C24.5729 57.7182 24.5459 57.7375 24.5227 57.7558C22.6699 59.1744 22.0716 61.5387 23.2392 63.0249C24.4262 64.54 26.9449 64.5496 28.8171 63.0335L39.5289 54.2518C39.5289 54.2518 39.3725 55.4388 39.3851 56.1433L39.4179 56.1848ZM67.0176 60.151C64.8077 62.3995 61.71 63.683 58.371 63.683C55.0224 63.6888 51.9246 62.4285 49.7147 60.18C48.6339 59.0799 47.8426 57.8253 47.3504 56.4839C46.8708 55.1618 46.6845 53.7625 46.8081 52.3536C46.9248 50.9736 47.3359 49.6515 47.995 48.4646C48.6397 47.2969 49.5294 46.2354 50.6199 45.3379C52.7719 43.5912 55.5029 42.6358 58.3594 42.6358C61.2255 42.6319 63.9565 43.5709 66.1086 45.3186C67.199 46.2102 68.0869 47.2679 68.7334 48.4356C69.3925 49.6226 69.8046 50.935 69.9204 52.3247C70.042 53.7336 69.8558 55.1329 69.3761 56.455C68.8859 57.806 68.0927 59.0605 67.0118 60.1607L67.0176 60.151Z" fill="#EA7600"/>
</g>
<defs>
<clipPath id="clip0">
<rect width="56" height="45.7901" fill="white" transform="translate(22 27.105)"/>
</clipPath>
</defs>
</svg>
