<svg width="48" height="48" viewBox="0 0 48 48" fill="none" xmlns="http://www.w3.org/2000/svg">
<path fill-rule="evenodd" clip-rule="evenodd" d="M24 42.5C34.2173 42.5 42.5 34.2173 42.5 24C42.5 13.7827 34.2173 5.5 24 5.5C13.7827 5.5 5.5 13.7827 5.5 24C5.5 34.2173 13.7827 42.5 24 42.5ZM24 44.5C35.3218 44.5 44.5 35.3218 44.5 24C44.5 12.6782 35.3218 3.5 24 3.5C12.6782 3.5 3.5 12.6782 3.5 24C3.5 35.3218 12.6782 44.5 24 44.5Z" fill="#8D7F7F"/>
<g clip-path="url(#clip0)">
<path d="M25.0566 8.41941C24.1936 7.84843 23.0678 7.86157 22.2179 8.45377L9.50073 17.3115C8.82263 17.7845 8.4184 18.5576 8.4184 19.3852V28.9291C8.4184 29.778 8.84385 30.5693 9.55227 31.0372L22.4776 39.5816C23.3224 40.1405 24.4199 40.1405 25.2648 39.5816L38.4468 30.8725C39.1542 30.4046 39.5806 29.6133 39.5806 28.7644V19.3872C39.5806 18.5394 39.1552 17.7481 38.4478 17.2802L25.0566 8.41941ZM34.9027 18.7576L30.0307 22.0289L25.4618 18.7061L25.4325 12.1707L34.9027 18.7576ZM22.1269 12.1767V18.5727L17.4449 21.847L12.775 18.7152L22.1269 12.1767ZM11.4946 21.8672L14.5173 23.8924L11.4946 26.0075V21.8672ZM22.2068 35.503L12.777 29.1787L17.4873 25.8863L22.2068 29.0524V35.503ZM20.416 23.8398L23.469 21.7045L27.0252 24.042L23.8732 26.1591L20.416 23.8398ZM25.5376 35.503V29.0504L30.0478 26.0278L34.9037 29.2202L25.5376 35.503ZM36.2498 26.1167L33.0482 24.0127L36.2498 21.8652V26.1167Z" fill="#8D7F7F"/>
</g>
<defs>
<clipPath id="clip0">
<rect width="32" height="32" fill="white" transform="translate(8 8)"/>
</clipPath>
</defs>
</svg>
