<svg width="48" height="48" viewBox="0 0 48 48" fill="none" xmlns="http://www.w3.org/2000/svg">
<path fill-rule="evenodd" clip-rule="evenodd" d="M24 42.5C34.2173 42.5 42.5 34.2173 42.5 24C42.5 13.7827 34.2173 5.5 24 5.5C13.7827 5.5 5.5 13.7827 5.5 24C5.5 34.2173 13.7827 42.5 24 42.5ZM24 44.5C35.3218 44.5 44.5 35.3218 44.5 24C44.5 12.6782 35.3218 3.5 24 3.5C12.6782 3.5 3.5 12.6782 3.5 24C3.5 35.3218 12.6782 44.5 24 44.5Z" fill="#8D7F7F"/>
<path d="M22.6664 36.0628V24.6911L12.8868 19.0645V25.5469L17.3664 28.1439V33.0186L22.6664 36.0628ZM25.2066 36.1296L30.6044 33.0201V28.0299L35.1132 25.4171V19.0159L25.2066 24.7355V36.1296ZM33.8103 16.835L28.6032 13.8175L24.0312 16.4705L19.4244 13.8149L14.1709 16.8727L23.975 22.5134L33.8103 16.835ZM10.3467 31.916V16.1595L23.9986 8.21335L37.6533 16.1261V31.8911L23.9983 39.7571L10.3467 31.916Z" fill="#8D7F7F"/>
</svg>
