<svg width="100" height="100" viewBox="0 0 100 100" fill="none" xmlns="http://www.w3.org/2000/svg">
<path d="M51.8499 22.7331C50.3396 21.7339 48.3694 21.7569 46.8821 22.7932L24.6271 38.2943C23.4405 39.1219 22.733 40.4748 22.733 41.9232V58.6251C22.733 60.1106 23.4776 61.4954 24.7173 62.3142L47.3366 77.267C48.8151 78.245 50.7357 78.245 52.2142 77.267L75.2827 62.0259C76.5206 61.2071 77.2669 59.8224 77.2669 58.3368V41.9268C77.2669 40.443 76.5224 39.0583 75.2844 38.2394L51.8499 22.7331ZM69.0805 40.825L60.5545 46.5497L52.559 40.7348L52.5078 29.2978L69.0805 40.825ZM46.7229 29.3084V40.5014L38.5294 46.2313L30.3571 40.7507L46.7229 29.3084ZM28.1164 46.2667L33.406 49.8108L28.1164 53.5123V46.2667V46.2667ZM46.8627 70.1293L30.3606 59.0619L38.6037 53.3001L46.8627 58.8409V70.1293ZM43.7288 49.7189L49.0715 45.982L55.2949 50.0726L49.7789 53.7776L43.7288 49.7189ZM52.6917 70.1293V58.8373L60.5846 53.5477L69.0823 59.1344L52.6917 70.1293ZM71.4379 53.7033L65.8353 50.0213L71.4379 46.2632V53.7033Z" fill="black"/>
</svg>
