<svg width="100" height="100" viewBox="0 0 100 100" fill="none" xmlns="http://www.w3.org/2000/svg">
<path d="M77.2711 61.6331C77.2951 61.3934 77.3138 61.1531 77.3271 60.9125C77.3437 60.626 60.1036 44.2687 60.1036 44.2687H59.6915C59.6915 44.2687 77.1652 62.7006 77.2711 61.6331Z" fill="url(#paint0_linear)"/>
<path d="M40.4887 55.9587C40.4424 56.0618 40.3946 56.1642 40.3452 56.2659C39.7957 57.4121 48.0387 65.47 48.7015 64.4909C48.7321 64.448 48.7628 64.4025 48.7925 64.3596C48.8262 64.308 48.859 64.259 48.8923 64.2074C49.4229 63.4024 40.7241 55.4355 40.4892 55.9587H40.4887Z" fill="url(#paint1_linear)"/>
<path d="M52.1376 67.29C52.1144 67.3416 51.9482 67.6225 51.7964 67.7704C51.771 67.8215 59.8438 75.8278 59.8438 75.8278H60.57C60.5709 75.8278 52.9925 67.629 52.1376 67.2904V67.29Z" fill="url(#paint2_linear)"/>
<path d="M77.3385 60.7669C76.9609 69.1363 70.0366 75.8278 61.578 75.8278H60.4344L51.9863 67.5057C52.685 66.5267 53.3249 65.507 53.9025 64.452H61.578C64.0061 64.452 65.981 62.4771 65.981 60.0485C65.981 57.6204 64.0057 55.6455 61.578 55.6455H57.0359C57.3902 53.7845 57.5695 51.8944 57.5714 50C57.5714 48.04 57.3789 46.1273 57.0201 44.2688H59.842L77.2895 61.4603C77.3096 61.2295 77.3259 60.9983 77.3385 60.7669V60.7669ZM27.2334 24.0878H22.644V35.4641H27.2334C35.2484 35.4641 41.7715 41.9841 41.7715 50C41.7715 52.1805 41.2846 54.2508 40.4205 56.1093L48.7925 64.3588C51.6377 60.111 53.1545 55.1126 53.15 50C53.15 35.7121 41.5239 24.0878 27.2343 24.0878H27.2334Z" fill="url(#paint3_linear)"/>
<path d="M61.578 24.0877H42.9939C47.5445 26.8669 51.2882 30.7891 53.8526 35.464H61.578C64.0061 35.464 65.981 37.4385 65.981 39.867C65.981 42.2952 64.0057 44.2683 61.578 44.2683H59.842L77.2895 61.4603C77.3324 60.9907 77.3546 60.5195 77.356 60.048C77.356 56.2129 75.9796 52.695 73.695 49.9567C75.9801 47.2197 77.356 43.7004 77.356 39.8666C77.356 31.166 70.2786 24.0869 61.578 24.0869V24.0877Z" fill="url(#paint4_linear)"/>
<path d="M60.4344 75.8278H43.1269C46.6067 73.674 49.6193 70.8442 51.9863 67.5057L60.4344 75.8278ZM48.7925 64.3587L40.4214 56.1097C38.1083 61.0806 33.0683 64.5377 27.2338 64.5377H22.644V75.9127H27.2334C36.2153 75.9127 44.1419 71.3189 48.7934 64.3596L48.7925 64.3587Z" fill="url(#paint5_linear)"/>
<defs>
<linearGradient id="paint0_linear" x1="45.2063" y1="28.0401" x2="77.6319" y2="63.0514" gradientUnits="userSpaceOnUse">
<stop stop-color="#F9A03C"/>
<stop offset="1" stop-color="#F7974E"/>
</linearGradient>
<linearGradient id="paint1_linear" x1="18.0535" y1="34.4232" x2="48.866" y2="64.308" gradientUnits="userSpaceOnUse">
<stop stop-color="#F9A03C"/>
<stop offset="1" stop-color="#F7974E"/>
</linearGradient>
<linearGradient id="paint2_linear" x1="32.1371" y1="44.9974" x2="59.1067" y2="76.7738" gradientUnits="userSpaceOnUse">
<stop stop-color="#F9A03C"/>
<stop offset="1" stop-color="#F7974E"/>
</linearGradient>
<linearGradient id="paint3_linear" x1="29.5451" y1="22.6072" x2="65.7924" y2="73.146" gradientUnits="userSpaceOnUse">
<stop stop-color="#F26D58"/>
<stop offset="1" stop-color="#F9A03C"/>
</linearGradient>
<linearGradient id="paint4_linear" x1="48.2575" y1="25.8429" x2="85.8737" y2="48.5611" gradientUnits="userSpaceOnUse">
<stop stop-color="#B84E51"/>
<stop offset="1" stop-color="#F68E48"/>
</linearGradient>
<linearGradient id="paint5_linear" x1="40.4276" y1="60.7729" x2="40.9379" y2="85.3186" gradientUnits="userSpaceOnUse">
<stop stop-color="#F9A03C"/>
<stop offset="1" stop-color="#F7974E"/>
</linearGradient>
</defs>
</svg>
