<svg width="100" height="100" viewBox="0 0 100 100" fill="none" xmlns="http://www.w3.org/2000/svg">
<g clip-path="url(#clip0)">
<path d="M40.6667 78C45.8187 78 50 73.8187 50 68.6667V59.3334H40.6667C35.5147 59.3334 31.3333 63.5147 31.3333 68.6667C31.3333 73.8187 35.5147 78 40.6667 78Z" fill="#0ACF83"/>
<path d="M31.3333 49.9999C31.3333 44.8479 35.5147 40.6666 40.6667 40.6666H50V59.3332H40.6667C35.5147 59.3332 31.3333 55.1519 31.3333 49.9999Z" fill="#A259FF"/>
<path d="M31.3333 31.3333C31.3333 26.1813 35.5147 22 40.6667 22H50V40.6667H40.6667C35.5147 40.6667 31.3333 36.4853 31.3333 31.3333Z" fill="#F24E1E"/>
<path d="M50 22H59.3334C64.4854 22 68.6667 26.1813 68.6667 31.3333C68.6667 36.4853 64.4854 40.6667 59.3334 40.6667H50V22Z" fill="#FF7262"/>
<path d="M68.6667 49.9999C68.6667 55.1519 64.4854 59.3332 59.3334 59.3332C54.1814 59.3332 50 55.1519 50 49.9999C50 44.8479 54.1814 40.6666 59.3334 40.6666C64.4854 40.6666 68.6667 44.8479 68.6667 49.9999Z" fill="#1ABCFE"/>
</g>
<defs>
<clipPath id="clip0">
<rect width="37.3408" height="56" fill="white" transform="translate(31.3296 22)"/>
</clipPath>
</defs>
</svg>
