<svg width="100" height="100" viewBox="0 0 100 100" fill="none" xmlns="http://www.w3.org/2000/svg">
<path d="M72.0001 50H58.0001V53.9988H67.5989C66.1989 59.9986 61.7976 64.9975 55.999 66.9986L32.9988 44.0001C35.3989 37.0001 42.1985 32.0004 50 32.0004C55.9999 32.0004 61.4013 35.0016 64.7998 39.6006L67.801 37.0019C63.7988 31.5988 57.3999 27.9999 50 27.9999C39.5998 27.9999 30.7999 35.3998 28.6001 45.1998L54.9989 71.5985C64.5976 69.1984 72.0001 60.3985 72.0001 49.9983V50ZM27.9999 50.2013C27.9999 55.8013 30.1996 61.2 34.3996 65.4C38.5996 69.6 44.1996 71.7998 49.5984 71.7998L27.9999 50.2013Z" fill="white"/>
<path d="M50 22C34.6 22 22 34.6 22 50C22 65.4 34.6 78 50 78C65.4 78 78 65.4 78 50C78 34.6 65.4 22 50 22ZM34.3988 65.6013C30.1987 61.4013 27.999 55.8012 27.999 50.4025L49.7988 72.0001C44.1988 71.7989 38.5988 69.8004 34.3988 65.6004V65.6013ZM54.7985 71.4025L28.6001 45.1997C30.7999 35.3998 39.5998 27.9999 50 27.9999C57.3999 27.9999 63.7987 31.5996 67.8001 37.0001L64.7989 39.5989C61.4012 34.9999 55.9999 32.0013 50 32.0013C42.2003 32.0013 35.6001 37.001 32.9987 44.001L55.9999 67.0013C61.8011 65.001 66.1997 60.0013 67.5997 54.0014H58.001V50H72.001C72.001 60.4002 64.6011 69.2001 54.8011 71.3999L54.7985 71.4025Z" fill="#663399"/>
</svg>
