<svg width="48" height="48" viewBox="0 0 48 48" fill="none" xmlns="http://www.w3.org/2000/svg">
<path fill-rule="evenodd" clip-rule="evenodd" d="M24 42.5C34.2173 42.5 42.5 34.2173 42.5 24C42.5 13.7827 34.2173 5.5 24 5.5C13.7827 5.5 5.5 13.7827 5.5 24C5.5 34.2173 13.7827 42.5 24 42.5ZM24 44.5C35.3218 44.5 44.5 35.3218 44.5 24C44.5 12.6782 35.3218 3.5 24 3.5C12.6782 3.5 3.5 12.6782 3.5 24C3.5 35.3218 12.6782 44.5 24 44.5Z" fill="#8D7F7F"/>
<path fill-rule="evenodd" clip-rule="evenodd" d="M23.9986 8.65689C15.3121 8.65689 8.26913 15.6998 8.26913 24.3892C8.26913 31.3385 12.7761 37.2351 19.0281 39.3151C19.8151 39.459 20.1019 38.9733 20.1019 38.5571C20.1019 38.1833 20.0884 37.1945 20.0807 35.8821C15.705 36.8323 14.7818 33.773 14.7818 33.773C14.0662 31.9555 13.0349 31.4717 13.0349 31.4717C11.6066 30.4954 13.1431 30.5156 13.1431 30.5156C14.722 30.6267 15.5525 32.1371 15.5525 32.1371C16.9556 34.5407 19.2347 33.8464 20.1309 33.4447C20.2738 32.4278 20.6804 31.7344 21.1294 31.3414C17.6364 30.9444 13.9639 29.5944 13.9639 23.5665C13.9639 21.8494 14.5771 20.4453 15.5834 19.3454C15.4221 18.9475 14.8813 17.3483 15.7379 15.1822C15.7379 15.1822 17.059 14.7592 20.0642 16.7949C21.3187 16.4463 22.6649 16.2715 24.0024 16.2657C25.338 16.2715 26.6842 16.4463 27.9405 16.7949C30.9439 14.7592 32.2621 15.1822 32.2621 15.1822C33.1206 17.3483 32.5808 18.9475 32.4186 19.3454C33.4268 20.4453 34.0352 21.8494 34.0352 23.5665C34.0352 29.6098 30.3568 30.9396 26.8522 31.3288C27.4171 31.8146 27.9203 32.7745 27.9203 34.2423C27.9203 36.3456 27.901 38.0424 27.901 38.5581C27.901 38.9791 28.1839 39.4677 28.9825 39.3142C35.2278 37.2302 39.7309 31.3375 39.7309 24.3902C39.7309 15.6998 32.687 8.65689 23.9986 8.65689Z" fill="#8D7F7F"/>
</svg>
