<svg width="100" height="100" viewBox="0 0 100 100" fill="none" xmlns="http://www.w3.org/2000/svg">
<g clip-path="url(#clip0)">
<path d="M29.6169 64.6795L27.5636 63.4923L50.4639 23.8293L52.5172 25.0165L29.6169 64.6795Z" fill="#E10098"/>
<path d="M27.0913 60.3227H72.8956V62.6971H27.0913V60.3227Z" fill="#E10098"/>
<path d="M50.9081 74.8864L27.9985 61.6592L29.1857 59.6058L52.0953 72.833L50.9081 74.8864ZM70.8105 40.409L47.8991 27.1837L49.0863 25.1304L71.9959 38.3576L70.8105 40.409Z" fill="#E10098"/>
<path d="M29.1913 40.4016L28.0041 38.3482L50.9343 25.1173L52.1215 27.1706L29.1913 40.4016Z" fill="#E10098"/>
<path d="M70.3887 64.6795L47.4847 25.0128L49.538 23.8256L72.442 63.4923L70.3887 64.6795ZM28.9076 36.7728H31.282V63.2272H28.9076V36.7728ZM68.7199 36.7728H71.0943V63.2272H68.7199V36.7728Z" fill="#E10098"/>
<path d="M50.5049 73.8803L49.4689 72.0845L69.3956 60.5803L70.4316 62.376L50.5049 73.8803Z" fill="#E10098"/>
<path d="M74.2396 64C73.5763 65.1455 72.486 65.9815 71.2075 66.3247C69.9291 66.6679 68.5667 66.4905 67.4188 65.8312C66.2733 65.1679 65.4373 64.0775 65.0941 62.7991C64.7509 61.5206 64.9283 60.1583 65.5876 59.0104C66.2509 57.8648 67.3412 57.0289 68.6197 56.6857C69.8981 56.3424 71.2605 56.5199 72.4084 57.1792C74.8108 58.5661 75.6265 61.6125 74.2377 64H74.2396ZM34.3993 40.9915C33.736 42.137 32.6457 42.9729 31.3672 43.3162C30.0888 43.6594 28.7264 43.4819 27.5785 42.8227C26.4325 42.1593 25.5962 41.0687 25.2529 39.7898C24.9097 38.5109 25.0875 37.148 25.7473 36C26.4107 34.8544 27.501 34.0185 28.7794 33.6753C30.0579 33.332 31.4203 33.5095 32.5681 34.1688C33.7137 34.8321 34.5496 35.9224 34.8928 37.2009C35.2361 38.4793 35.0586 39.8417 34.3993 40.9896V40.9915ZM25.7623 64C25.103 62.8521 24.9255 61.4897 25.2688 60.2113C25.612 58.9328 26.4479 57.8425 27.5935 57.1792C28.7413 56.5199 30.1037 56.3424 31.3822 56.6857C32.6606 57.0289 33.7509 57.8648 34.4143 59.0104C35.0735 60.1583 35.251 61.5206 34.9078 62.7991C34.5645 64.0775 33.7286 65.1679 32.5831 65.8312C30.1807 67.2032 27.1324 66.3912 25.7623 64.0019V64ZM65.6025 40.9933C64.9433 39.8454 64.7658 38.4831 65.109 37.2046C65.4523 35.9262 66.2882 34.8358 67.4337 34.1725C68.5816 33.5132 69.944 33.3358 71.2224 33.679C72.5009 34.0222 73.5912 34.8582 74.2545 36.0037C74.9138 37.1516 75.0913 38.514 74.748 39.7924C74.4048 41.0709 73.5689 42.1612 72.4233 42.8245C71.2755 43.4838 69.9131 43.6613 68.6346 43.318C67.3562 42.9748 66.2659 42.1389 65.6025 40.9933V40.9933ZM50.0009 78C49.0136 78 48.0485 77.7072 47.2276 77.1586C46.4067 76.6101 45.767 75.8304 45.3892 74.9182C45.0115 74.0061 44.9128 73.0023 45.1055 72.034C45.2983 71.0657 45.7738 70.1764 46.4721 69.4784C47.1703 68.7804 48.0599 68.3051 49.0283 68.1127C49.9967 67.9203 51.0003 68.0195 51.9124 68.3975C52.8244 68.7756 53.6038 69.4157 54.1521 70.2368C54.7003 71.0579 54.9928 72.0231 54.9924 73.0104C54.9889 74.333 54.4619 75.6004 53.5265 76.5354C52.5911 77.4704 51.3235 77.997 50.0009 78V78ZM50.0009 31.9829C49.3452 31.9839 48.6957 31.8555 48.0896 31.605C47.4836 31.3545 46.9329 30.9868 46.4692 30.5231C46.0055 30.0594 45.6379 29.5088 45.3874 28.9028C45.1369 28.2967 45.0085 27.6472 45.0095 26.9914C45.0095 25.6679 45.5353 24.3985 46.4712 23.4626C47.4071 22.5267 48.6764 22.0009 50 22.0009C51.3236 22.0009 52.5929 22.5267 53.5288 23.4626C54.4647 24.3985 54.9905 25.6679 54.9905 26.9914C54.9913 27.6469 54.8627 28.2961 54.6122 28.9018C54.3617 29.5075 53.9942 30.0578 53.5308 30.5213C53.0673 30.9847 52.5169 31.3522 51.9112 31.6027C51.3055 31.8532 50.6564 31.9818 50.0009 31.981" fill="#E10098"/>
</g>
<defs>
<clipPath id="clip0">
<rect width="56" height="56" fill="white" transform="translate(22 22)"/>
</clipPath>
</defs>
</svg>
