<svg width="100" height="100" viewBox="0 0 100 100" fill="none" xmlns="http://www.w3.org/2000/svg">
<g clip-path="url(#clip0)">
<path d="M73.919 49.5782C73.919 46.206 71.6002 43.3684 68.4879 42.5581L75.4599 22H40.9087L47.8965 42.6237C44.8812 43.4987 42.6596 46.2883 42.6596 49.5958C42.6596 52.0283 43.8846 54.1842 45.7239 55.5134C44.9941 56.5511 44.1515 57.5084 43.1951 58.4158C41.3952 60.1019 39.4011 61.3995 37.2451 62.257C35.2991 60.9445 34.4565 58.6258 35.2186 56.5503C38.1849 55.642 40.3417 52.87 40.3417 49.6115C40.3417 45.6066 37.0832 42.3639 33.0941 42.3639C29.0892 42.3639 25.8316 45.6224 25.8316 49.6264C25.8326 51.5354 26.5906 53.3662 27.9395 54.7171L27.5982 55.4145C26.5132 57.6519 25.2795 60.1815 24.8096 63.027C23.869 68.7014 25.4099 73.2575 29.1234 75.8353C31.2234 77.279 33.5159 78.0079 35.9974 78.0079C40.2612 78.0079 44.5899 75.8676 48.7724 73.7921C51.7561 72.3169 54.8361 70.7769 57.868 70.0296C58.988 69.754 60.1544 69.5921 61.3855 69.4136C63.8827 69.0566 66.4605 68.6839 68.7792 67.3381C71.4865 65.7657 73.3354 63.1381 73.87 60.1229C74.2751 57.8041 73.87 55.4696 72.8322 53.4265C73.5296 52.3065 73.9172 50.994 73.9172 49.5852L73.919 49.5782ZM70.7576 49.5782C70.7576 51.8322 68.9254 53.6645 66.6714 53.6645C64.4174 53.6645 62.5851 51.8322 62.5851 49.5782C62.5851 48.8485 62.7794 48.152 63.1189 47.5517C63.2484 47.3242 63.4111 47.0967 63.5739 46.9042C63.7431 46.7058 63.9335 46.5266 64.1417 46.3696L64.1592 46.3521C64.2887 46.2559 64.4349 46.1579 64.581 46.0599C64.581 46.0599 64.5985 46.0599 64.5985 46.0424C64.6632 46.01 64.728 45.961 64.7927 45.9286C64.8102 45.9286 64.8251 45.9111 64.8417 45.9111C64.9065 45.8787 64.9879 45.8464 65.0692 45.8149C65.1506 45.7834 65.2311 45.7501 65.2967 45.7186C65.3142 45.7186 65.3291 45.7011 65.3457 45.7011C65.4105 45.6836 65.4752 45.6521 65.54 45.6364C65.5575 45.6364 65.589 45.6189 65.6047 45.6189L65.8322 45.5699H65.8497L66.093 45.5209C66.1105 45.5209 66.142 45.5209 66.1577 45.5034C66.2225 45.5034 66.2872 45.4859 66.352 45.4859H66.4334C66.5147 45.4859 66.5952 45.4684 66.6924 45.4684H66.9024C66.9624 45.4658 67.0224 45.4714 67.0809 45.485H67.1132C67.2427 45.5025 67.3722 45.5174 67.5026 45.5497C68.4233 45.7469 69.2488 46.2533 69.8417 46.9848C70.4345 47.7163 70.759 48.6288 70.7611 49.5704L70.7576 49.5782ZM45.4325 25.2428H70.9361L65.0824 42.51C64.8391 42.559 64.5959 42.6395 64.3526 42.72L58.1926 30.155L52.0151 42.6395C51.7719 42.5581 51.5129 42.51 51.2539 42.461L45.4325 25.2428ZM57.0245 48.1678C56.7165 46.6435 55.9395 45.282 54.837 44.2766L58.1935 37.4998L61.5824 44.4227C60.5509 45.4428 59.8456 46.7463 59.5559 48.1678H57.0245ZM48.9019 45.6058L49.1294 45.5568H49.1784C49.2431 45.5393 49.3079 45.5393 49.3726 45.5244H49.4374C49.5021 45.5244 49.5511 45.5069 49.6159 45.5069H50.2485C50.3132 45.5069 50.3622 45.5244 50.4104 45.5244C50.4427 45.5244 50.4594 45.5244 50.4917 45.5419C50.5565 45.5594 50.6055 45.5594 50.6702 45.5742C50.6877 45.5742 50.7026 45.5742 50.735 45.5917L50.9625 45.6407C51.0439 45.6582 51.1086 45.6731 51.1725 45.7055C51.19 45.7055 51.2049 45.723 51.2372 45.723C51.2862 45.7405 51.351 45.7554 51.3991 45.7878C51.4166 45.7878 51.4315 45.8052 51.4481 45.8052C51.5129 45.8376 51.5776 45.8542 51.6424 45.8866H51.6599C51.735 45.9147 51.806 45.953 51.8707 46.0004C51.9521 46.0328 52.0169 46.0818 52.0807 46.1141C52.0982 46.1141 52.0982 46.1316 52.1131 46.1316C52.1779 46.164 52.2269 46.213 52.2916 46.2454L52.3091 46.2629C52.5034 46.409 52.6819 46.5709 52.8604 46.7328L52.8779 46.7502C53.0397 46.9287 53.2016 47.123 53.3329 47.3339C53.7678 47.9989 53.999 48.7766 53.9979 49.5713C53.9979 51.8253 52.1656 53.6575 49.9116 53.6575C47.6576 53.6575 45.8254 51.8253 45.8254 49.5713C45.8079 47.6743 47.1221 46.0695 48.9054 45.6162L48.9019 45.6058ZM32.948 45.492C35.202 45.492 37.0342 47.3242 37.0342 49.5782C37.0342 51.8322 35.202 53.6645 32.948 53.6645C30.694 53.6645 28.8617 51.8322 28.8617 49.5782C28.8617 47.3242 30.694 45.492 32.948 45.492V45.492ZM70.6605 59.5489C70.3035 61.6244 69.0242 63.44 67.143 64.5259C65.3755 65.547 63.2029 65.8716 60.9174 66.1971C59.6687 66.3756 58.3554 66.5699 57.091 66.8779C53.7187 67.7048 50.476 69.3261 47.3304 70.8828C43.3097 72.8778 39.5166 74.7572 35.9974 74.7572C34.1651 74.7572 32.528 74.2384 30.9714 73.1525C27.4049 70.6885 27.5825 66.0676 28.0051 63.538C28.3945 61.1711 29.4804 58.9495 30.5181 56.8267C30.5829 56.6972 30.6319 56.5835 30.6966 56.454C31.0536 56.5835 31.4264 56.6815 31.8166 56.7462C31.2006 60.1832 32.9515 63.734 36.3561 65.4849L36.9721 65.8086L37.6371 65.5654C40.4747 64.5591 43.1006 62.9229 45.4194 60.7336C46.7004 59.5391 47.8327 58.1945 48.7916 56.7287C49.1644 56.7935 49.5371 56.8101 49.9116 56.8101C53.2839 56.8101 56.1215 54.4914 56.9317 51.379H59.6556C60.4659 54.508 63.3044 56.8101 66.6757 56.8101C67.9654 56.8104 69.2313 56.4631 70.3402 55.8047C70.762 57.0297 70.8915 58.2854 70.664 59.5498L70.6605 59.5489Z" fill="#99424F"/>
</g>
<defs>
<clipPath id="clip0">
<rect width="56" height="56" fill="white" transform="translate(22 22)"/>
</clipPath>
</defs>
</svg>
