<svg width="48" height="48" viewBox="0 0 48 48" fill="none" xmlns="http://www.w3.org/2000/svg">
<path fill-rule="evenodd" clip-rule="evenodd" d="M24 42.5C34.2173 42.5 42.5 34.2173 42.5 24C42.5 13.7827 34.2173 5.5 24 5.5C13.7827 5.5 5.5 13.7827 5.5 24C5.5 34.2173 13.7827 42.5 24 42.5ZM24 44.5C35.3218 44.5 44.5 35.3218 44.5 24C44.5 12.6782 35.3218 3.5 24 3.5C12.6782 3.5 3.5 12.6782 3.5 24C3.5 35.3218 12.6782 44.5 24 44.5Z" fill="#8D7F7F"/>
<path d="M33.4134 13H14.5867C13.7103 13 13 13.7103 13 14.5867V33.4134C13 34.2897 13.7103 35 14.5867 35H33.4134C34.2897 35 35 34.2897 35 33.4134V14.5867C35 13.7103 34.2897 13 33.4134 13ZM20.8035 29.6289H18.1245V21.5691H20.8035V29.6289ZM19.4641 20.4685H19.4467C18.5477 20.4685 17.9663 19.8497 17.9663 19.0762C17.9663 18.2853 18.5654 17.6836 19.4819 17.6836C20.3984 17.6836 20.9623 18.2853 20.9798 19.0762C20.9798 19.8497 20.3984 20.4685 19.4641 20.4685ZM30.4634 29.6289H27.7848V25.3171C27.7848 24.2335 27.3969 23.4944 26.4276 23.4944C25.6875 23.4944 25.2468 23.993 25.0531 24.4742C24.9822 24.6464 24.9649 24.8871 24.9649 25.1279V29.6289H22.2861C22.2861 29.6289 22.3212 22.3252 22.2861 21.5691H24.9649V22.7102C25.321 22.1611 25.9579 21.3799 27.3793 21.3799C29.1418 21.3799 30.4634 22.5318 30.4634 25.0074V29.6289Z" fill="#8D7F7F"/>
</svg>
