<svg width="100" height="100" viewBox="0 0 100 100" fill="none" xmlns="http://www.w3.org/2000/svg">
<path d="M71.2962 24H28.7038C26.106 24 24 26.106 24 28.7038V71.296C24 73.894 26.106 76 28.7038 76H71.296C73.894 76 76 73.894 76 71.296V28.7038C76 26.106 73.894 24 71.2962 24ZM40.091 68.9002C40.091 69.6563 39.4782 70.2691 38.7221 70.2691H32.8951C32.1391 70.2691 31.5263 69.6563 31.5263 68.9002V44.4737C31.5263 43.7177 32.1391 43.1048 32.8951 43.1048H38.7221C39.4782 43.1048 40.091 43.7177 40.091 44.4737V68.9002ZM35.8086 40.8023C32.7514 40.8023 30.2729 38.3238 30.2729 35.2666C30.2729 32.2093 32.7514 29.7309 35.8086 29.7309C38.8659 29.7309 41.3443 32.2093 41.3443 35.2666C41.3443 38.3238 38.866 40.8023 35.8086 40.8023ZM70.5427 69.0105C70.5427 69.7055 69.9792 70.2691 69.2841 70.2691H63.0313C62.3363 70.2691 61.7727 69.7055 61.7727 69.0105V57.5531C61.7727 55.8439 62.274 50.0633 57.306 50.0633C53.4524 50.0633 52.6708 54.0199 52.5138 55.7955V69.0105C52.5138 69.7055 51.9504 70.2691 51.2552 70.2691H45.2077C44.5126 70.2691 43.9491 69.7055 43.9491 69.0105V44.3634C43.9491 43.6684 44.5126 43.1048 45.2077 43.1048H51.2552C51.9503 43.1048 52.5138 43.6684 52.5138 44.3634V46.4945C53.9427 44.3501 56.0663 42.695 60.5877 42.695C70.6 42.695 70.5427 52.049 70.5427 57.1885V69.0105Z" fill="#0077B7"/>
</svg>
