<svg width="100" height="100" viewBox="0 0 100 100" fill="none" xmlns="http://www.w3.org/2000/svg">
<path d="M71.0104 34.8604L75 31.0437V30.2083H61.1792L51.3292 54.725L40.1229 30.2083H25.6312V31.0437L30.2917 36.6541C30.7458 37.0687 30.9833 37.675 30.9229 38.2854V60.3333C31.0667 61.1271 30.8083 61.9437 30.25 62.5208L25 68.8833V69.7083H39.8854V68.8729L34.6354 62.5208C34.0667 61.9416 33.7979 61.1396 33.9125 60.3333V41.2625L46.9792 69.7187H48.4979L59.7333 41.2625V63.9312C59.7333 64.5291 59.7333 64.6521 59.3417 65.0437L55.3 68.9541V69.7916H74.9083V68.9562L71.0125 65.1416C70.6708 64.8833 70.4937 64.45 70.5667 64.0291V35.9729C70.4937 35.55 70.6687 35.1166 71.0104 34.8604V34.8604Z" fill="#212121"/>
</svg>
