<svg width="48" height="48" viewBox="0 0 48 48" fill="none" xmlns="http://www.w3.org/2000/svg">
<path fill-rule="evenodd" clip-rule="evenodd" d="M24 42.5C34.2173 42.5 42.5 34.2173 42.5 24C42.5 13.7827 34.2173 5.5 24 5.5C13.7827 5.5 5.5 13.7827 5.5 24C5.5 34.2173 13.7827 42.5 24 42.5ZM24 44.5C35.3218 44.5 44.5 35.3218 44.5 24C44.5 12.6782 35.3218 3.5 24 3.5C12.6782 3.5 3.5 12.6782 3.5 24C3.5 35.3218 12.6782 44.5 24 44.5Z" fill="#8D7F7F"/>
<g clip-path="url(#clip0)">
<path d="M33.2446 17.3386L35 15.6592V15.2917H28.9188L24.5848 26.079L19.6541 15.2917H13.2778V15.6592L15.3283 18.1278C15.5282 18.3102 15.6327 18.577 15.6061 18.8456V28.5466C15.6693 28.8959 15.5557 29.2552 15.31 29.5091L13 32.3086V32.6716H19.5496V32.3041L17.2396 29.5091C16.9893 29.2543 16.8711 28.9014 16.9215 28.5466V20.1555L22.6708 32.6762H23.3391L28.2827 20.1555V30.1297C28.2827 30.3928 28.2827 30.4469 28.1103 30.6192L26.332 32.3398V32.7083H34.9597V32.3407L33.2455 30.6623C33.0952 30.5486 33.0173 30.358 33.0493 30.1728V17.8281C33.0173 17.642 33.0943 17.4513 33.2446 17.3386V17.3386Z" fill="#8D7F7F"/>
</g>
<defs>
<clipPath id="clip0">
<rect width="22" height="22" fill="white" transform="translate(13 13)"/>
</clipPath>
</defs>
</svg>
