<svg width="100" height="100" viewBox="0 0 100 100" fill="none" xmlns="http://www.w3.org/2000/svg">
<g clip-path="url(#clip0)">
<path d="M35.238 39.8158H45.7827V40.6558H36.2049V46.9773H45.2115V47.8173H36.2049V54.7578H45.8925V55.5978H35.238V39.8158ZM46.7272 39.8158H47.8477L52.8125 46.7562L57.887 39.8158L64.7892 31L53.4496 47.4857L59.293 55.5978H58.1285L52.8125 48.2152L47.4745 55.5978H46.332L52.2193 47.4857L46.7276 39.8158H46.7272ZM59.7105 40.6558V39.8158H71.7266V40.6558H66.191V55.5974H65.2242V40.6558H59.7109H59.7105ZM22.0465 39.8158H23.2549L39.9155 64.8016L33.0303 55.5978L23.0569 41.0094L23.013 55.5978H22.0465V39.8158ZM71.6297 54.5041C71.4317 54.5041 71.2837 54.3508 71.2837 54.1528C71.2837 53.9545 71.4317 53.8012 71.6293 53.8012C71.8292 53.8012 71.9749 53.9545 71.9749 54.1528C71.9749 54.3508 71.8292 54.5041 71.6293 54.5041H71.6297ZM72.5791 53.5793H73.0966C73.1038 53.8602 73.3086 54.0487 73.6092 54.0487C73.9453 54.0487 74.1357 53.8462 74.1357 53.4661V51.06H74.6623V53.4684C74.6623 54.1528 74.2675 54.5469 73.6137 54.5469C73.0004 54.5469 72.5795 54.1646 72.5795 53.5793H72.5791ZM75.3509 53.549H75.8729C75.9176 53.8719 76.2326 54.0771 76.6864 54.0771C77.1093 54.0771 77.4197 53.8576 77.4197 53.5558C77.4197 53.2965 77.2225 53.1406 76.7731 53.0346L76.3359 52.9286C75.7226 52.7847 75.4425 52.4872 75.4425 51.9871C75.4425 51.3807 75.9361 50.9771 76.6766 50.9771C77.3656 50.9771 77.869 51.3807 77.8993 51.9538H77.3868C77.3375 51.6404 77.065 51.4443 76.6698 51.4443C76.2534 51.4443 75.9763 51.6449 75.9763 51.9515C75.9763 52.1946 76.1549 52.3339 76.5971 52.4376L76.9707 52.5296C77.6665 52.6924 77.9535 52.9755 77.9535 53.4873C77.9535 54.1384 77.45 54.5469 76.6463 54.5469C75.8941 54.5469 75.3884 54.1574 75.3509 53.5487V53.549Z" fill="black"/>
</g>
<defs>
<clipPath id="clip0">
<rect width="56" height="33.8016" fill="white" transform="translate(22 31)"/>
</clipPath>
</defs>
</svg>
