<svg width="100" height="100" viewBox="0 0 100 100" fill="none" xmlns="http://www.w3.org/2000/svg">
<path d="M72.0172 57.3277C71.8903 57.3277 71.7643 57.2944 71.6532 57.2297L70.4938 56.5437C70.3205 56.447 70.405 56.4124 70.4623 56.3928C70.6933 56.3123 70.7401 56.2934 70.9864 56.1543C71.0122 56.1399 71.0459 56.1451 71.0726 56.1609L71.9629 56.6898C71.9795 56.6987 71.9979 56.7033 72.0167 56.7033C72.0355 56.7033 72.054 56.6987 72.0705 56.6898L75.543 54.6856C75.5593 54.676 75.5728 54.6622 75.5822 54.6457C75.5916 54.6292 75.5965 54.6105 75.5963 54.5916V50.5841C75.5964 50.5648 75.5914 50.5459 75.582 50.5291C75.5726 50.5123 75.559 50.4983 75.5425 50.4883L72.0714 48.4858C72.055 48.4768 72.0366 48.472 72.0178 48.472C71.9991 48.472 71.9806 48.4768 71.9642 48.4858L68.4935 50.4887C68.4771 50.4986 68.4634 50.5126 68.4538 50.5293C68.4443 50.546 68.4391 50.5648 68.4388 50.5841V54.5916C68.4388 54.6301 68.4603 54.6664 68.4935 54.6843L69.4447 55.2343C69.9609 55.4919 70.2772 55.1883 70.2772 54.8829V50.9258C70.2772 50.8702 70.3223 50.826 70.3778 50.826H70.8184C70.8731 50.826 70.9186 50.8702 70.9186 50.9258V54.8829C70.9186 55.5716 70.5437 55.9666 69.8905 55.9666C69.6897 55.9666 69.5317 55.9666 69.0907 55.7496L68.1803 55.2255C68.0695 55.161 67.9776 55.0685 67.9138 54.9573C67.8499 54.8462 67.8163 54.7202 67.8163 54.592V50.5845C67.8163 50.3242 67.955 50.0814 68.1803 49.9519L71.6527 47.9451C71.7646 47.8842 71.89 47.8522 72.0174 47.8522C72.1448 47.8522 72.2701 47.8842 72.382 47.9451L75.8545 49.9519C76.0793 50.0818 76.2189 50.3246 76.2189 50.5845V54.592C76.2187 54.7202 76.1849 54.8461 76.121 54.9573C76.0571 55.0684 75.9652 55.1609 75.8545 55.2255L72.382 57.2301C72.2712 57.2944 72.1453 57.3281 72.0172 57.3277ZM73.0903 54.5666C71.57 54.5666 71.252 53.8688 71.252 53.2839C71.2521 53.2573 71.2627 53.2318 71.2816 53.213C71.3005 53.1942 71.326 53.1837 71.3526 53.1837H71.8015C71.8255 53.1836 71.8488 53.1921 71.867 53.2077C71.8853 53.2232 71.8975 53.2448 71.9012 53.2686C71.9686 53.7258 72.1712 53.9563 73.0903 53.9563C73.8214 53.9563 74.1329 53.7909 74.1329 53.4024C74.1329 53.1784 74.0445 53.0126 72.9079 52.9011C71.9577 52.807 71.3701 52.5974 71.3701 51.8366C71.3701 51.1362 71.9607 50.7179 72.9503 50.7179C74.0629 50.7179 74.6133 51.1043 74.6828 51.9329C74.6839 51.9468 74.6822 51.9609 74.6777 51.9741C74.6731 51.9873 74.666 51.9995 74.6566 52.0099C74.6471 52.0198 74.6357 52.0278 74.6231 52.0333C74.6105 52.0388 74.5969 52.0417 74.5831 52.0418H74.132C74.1093 52.0419 74.0872 52.0341 74.0695 52.0199C74.0517 52.0056 74.0394 51.9857 74.0345 51.9635C73.926 51.4823 73.6635 51.3287 72.9499 51.3287C72.1515 51.3287 72.0587 51.6074 72.0587 51.8152C72.0587 52.0676 72.1681 52.1411 73.2465 52.2838C74.3136 52.4251 74.8207 52.6246 74.8207 53.3749C74.8211 54.1331 74.1902 54.5666 73.0903 54.5666" fill="#83CD29"/>
<path d="M64.8671 51.9381C65.004 51.858 65.0885 51.7119 65.0885 51.5531V50.5232C65.0885 50.3648 65.0045 50.2187 64.8671 50.1387L61.2078 48.0142C61.1402 47.9748 61.0633 47.954 60.9851 47.9539C60.9068 47.9537 60.8299 47.9742 60.762 48.0133L57.08 50.1391C57.0125 50.1782 56.9564 50.2343 56.9174 50.3019C56.8784 50.3695 56.8579 50.4461 56.8578 50.5241V54.7748C56.8578 54.9345 56.9435 55.0824 57.0827 55.1616L60.7415 57.2463C60.8762 57.3237 61.0416 57.3242 61.1777 57.2489L63.3905 56.0187C63.425 55.9995 63.4537 55.9716 63.4738 55.9377C63.4939 55.9038 63.5047 55.8652 63.5049 55.8258C63.5052 55.7864 63.495 55.7477 63.4754 55.7135C63.4557 55.6794 63.4273 55.6511 63.3932 55.6315L59.6884 53.5052C59.6544 53.4859 59.6262 53.4579 59.6065 53.424C59.5868 53.3902 59.5765 53.3518 59.5764 53.3127V51.9801C59.5764 51.9005 59.6188 51.8274 59.6875 51.788L60.8412 51.123C60.8749 51.1035 60.9132 51.0932 60.9521 51.0932C60.9911 51.0932 61.0293 51.1035 61.063 51.123L62.2167 51.788C62.2506 51.8074 62.2787 51.8354 62.2983 51.8691C62.3179 51.9028 62.3282 51.9411 62.3283 51.9801V53.0283C62.3281 53.0675 62.3382 53.1061 62.3577 53.1401C62.3773 53.1741 62.4054 53.2023 62.4394 53.2219C62.4734 53.2414 62.5119 53.2516 62.5511 53.2515C62.5903 53.2513 62.6287 53.2407 62.6625 53.2208L64.8671 51.9381" fill="#404137"/>
<path d="M60.9305 51.7386C60.9436 51.7314 60.9582 51.7275 60.9732 51.7275C60.9881 51.7275 61.0028 51.7314 61.0158 51.7386L61.7224 52.1468C61.7486 52.1621 61.7648 52.1906 61.7648 52.2208V53.0367C61.7648 53.0673 61.7486 53.0953 61.7224 53.1106L61.0158 53.5184C61.0029 53.5259 60.9882 53.5299 60.9732 53.5299C60.9582 53.5299 60.9435 53.5259 60.9305 53.5184L60.2244 53.1106C60.2113 53.1032 60.2005 53.0925 60.193 53.0795C60.1854 53.0665 60.1815 53.0517 60.1815 53.0367V52.2208C60.1815 52.1906 60.1977 52.1621 60.2244 52.1468L60.9305 51.7386Z" fill="#83CD29"/>
<path d="M51.3488 53.4361C51.3488 53.4755 51.3278 53.5123 51.2932 53.5324L50.0289 54.2613C50.012 54.2712 49.9928 54.2764 49.9733 54.2764C49.9538 54.2764 49.9346 54.2712 49.9177 54.2613L48.6534 53.5324C48.6365 53.5226 48.6225 53.5086 48.6127 53.4917C48.603 53.4748 48.5978 53.4556 48.5978 53.4361V51.9758C48.5978 51.9364 48.6192 51.8992 48.6534 51.8791L49.9177 51.1493C49.9346 51.1392 49.9539 51.1339 49.9735 51.1339C49.9932 51.1339 50.0124 51.1392 50.0293 51.1493L51.2941 51.8791C51.3109 51.8891 51.3248 51.9032 51.3344 51.9202C51.3441 51.9371 51.3492 51.9563 51.3492 51.9758V53.4361H51.3488ZM51.6905 42.6229C51.6566 42.6044 51.6185 42.5949 51.5798 42.5955C51.5412 42.5961 51.5034 42.6067 51.4701 42.6263C51.4368 42.6459 51.4091 42.6737 51.3897 42.7072C51.3704 42.7406 51.3601 42.7785 51.3597 42.8171V48.4675C51.3596 48.4947 51.3524 48.5215 51.3389 48.5451C51.3253 48.5687 51.3058 48.5884 51.2823 48.6022C51.2586 48.6158 51.2317 48.6229 51.2044 48.6229C51.1771 48.6229 51.1503 48.6158 51.1265 48.6022L50.2043 48.0706C50.1368 48.0318 50.0602 48.0113 49.9823 48.0113C49.9043 48.0113 49.8278 48.0318 49.7602 48.0706L46.0774 50.196C46.0097 50.2351 45.9535 50.2913 45.9144 50.3589C45.8753 50.4266 45.8547 50.5033 45.8547 50.5815V54.8335C45.8547 54.9923 45.9396 55.1389 46.0769 55.219L49.7598 57.3456C49.8972 57.4253 50.0669 57.4253 50.2047 57.3456L53.8885 55.219C53.956 55.1798 54.0121 55.1235 54.0511 55.0559C54.0901 54.9883 54.1106 54.9116 54.1107 54.8335V44.2342C54.1107 44.0732 54.0232 43.9245 53.8828 43.8457L51.6905 42.6229Z" fill="#404137"/>
<path d="M38.7291 47.9906C38.7967 47.9515 38.8733 47.9309 38.9514 47.9309C39.0294 47.9309 39.1061 47.9515 39.1736 47.9906L42.8565 50.1155C42.9939 50.1952 43.0788 50.3422 43.0788 50.501V54.7543C43.0788 54.9132 42.9939 55.0602 42.8565 55.1398L39.1741 57.2665C39.1064 57.3054 39.0297 57.3259 38.9516 57.3259C38.8735 57.3259 38.7968 57.3054 38.7291 57.2665L35.0476 55.1398C34.98 55.1006 34.924 55.0444 34.885 54.9767C34.846 54.9091 34.8254 54.8324 34.8253 54.7543V50.5005C34.8253 50.3422 34.9102 50.1952 35.0476 50.1155L38.7291 47.9906" fill="#83CD29"/>
<path d="M32.0319 50.4655C32.0319 50.3053 31.9479 50.1583 31.8096 50.0792L28.128 47.9603C28.0662 47.9245 27.9965 47.9045 27.925 47.9022H27.887C27.8156 47.9046 27.7458 47.9246 27.684 47.9603L24.002 50.0792C23.9342 50.1184 23.878 50.1747 23.8389 50.2425C23.7998 50.3103 23.7793 50.3872 23.7793 50.4655L23.7872 56.1705C23.7872 56.2501 23.8287 56.324 23.8983 56.3625C23.9316 56.3827 23.9698 56.3934 24.0088 56.3934C24.0477 56.3934 24.0859 56.3827 24.1192 56.3625L26.3067 55.1095C26.445 55.0273 26.5294 54.8825 26.5294 54.7237V52.0584C26.5294 51.8992 26.6134 51.7526 26.7512 51.673L27.6831 51.1366C27.7505 51.097 27.8272 51.0763 27.9054 51.0767C27.9815 51.0767 28.0594 51.0959 28.1272 51.1366L29.0582 51.673C29.196 51.7526 29.2809 51.8992 29.2809 52.0584V54.7237C29.2809 54.8825 29.3662 55.0282 29.5035 55.1095L31.691 56.3625C31.7248 56.3818 31.763 56.3919 31.8018 56.3918C31.8407 56.3917 31.8788 56.3814 31.9125 56.362C31.9461 56.3426 31.9741 56.3147 31.9936 56.2811C32.013 56.2475 32.0234 56.2093 32.0235 56.1705L32.0319 50.4655" fill="#404137"/>
</svg>
