<svg width="100" height="100" viewBox="0 0 100 100" fill="none" xmlns="http://www.w3.org/2000/svg">
<g clip-path="url(#clip0)">
<path d="M31.9167 22.7H68.0833C73.5667 22.7 78 27.1333 78 32.6167V67.3833C78 72.8667 73.5667 77.3 68.0833 77.3H31.9167C26.4333 77.3 22 72.8667 22 67.3833V32.6167C22 27.1333 26.4333 22.7 31.9167 22.7Z" fill="#001E36"/>
<path d="M34.6 60.99V36.98C34.6 36.8167 34.67 36.7234 34.8333 36.7234C35.23 36.7234 35.6033 36.7234 36.14 36.7C36.7 36.6767 37.2833 36.6767 37.9133 36.6534C38.5433 36.63 39.22 36.63 39.9433 36.6067C40.6667 36.5834 41.3667 36.5834 42.0667 36.5834C43.98 36.5834 45.5667 36.8167 46.8733 37.3067C48.04 37.7034 49.1133 38.3567 50 39.22C50.7467 39.9667 51.33 40.8767 51.7033 41.88C52.0533 42.86 52.24 43.8634 52.24 44.9134C52.24 46.92 51.7733 48.5767 50.84 49.8834C49.9067 51.19 48.6 52.17 47.0833 52.73C45.4967 53.3134 43.7467 53.5234 41.8333 53.5234C41.2733 53.5234 40.9 53.5234 40.6667 53.5C40.4333 53.4767 40.1067 53.4767 39.6633 53.4767V60.9667C39.6867 61.13 39.57 61.27 39.4067 61.2934C39.3833 61.2934 39.36 61.2934 39.3133 61.2934H34.88C34.6933 61.2934 34.6 61.2 34.6 60.99ZM39.6867 41.2267V49.0667C40.0133 49.09 40.3167 49.1134 40.5967 49.1134H41.8333C42.7433 49.1134 43.6533 48.9734 44.5167 48.6934C45.2633 48.4834 45.9167 48.04 46.43 47.4567C46.92 46.8734 47.1533 46.08 47.1533 45.0534C47.1767 44.33 46.99 43.6067 46.6167 42.9767C46.22 42.37 45.66 41.9034 44.9833 41.6467C44.12 41.2967 43.1867 41.1567 42.23 41.18C41.6233 41.18 41.0867 41.18 40.6433 41.2034C40.1767 41.18 39.85 41.2034 39.6867 41.2267Z" fill="#31A8FF"/>
<path d="M66.8 47.6434C66.1 47.2701 65.3533 47.0134 64.56 46.8501C63.6967 46.6634 62.8333 46.5467 61.9467 46.5467C61.48 46.5234 60.99 46.5934 60.5467 46.7101C60.2433 46.7801 59.9867 46.9434 59.8233 47.1767C59.7067 47.3634 59.6367 47.5967 59.6367 47.8067C59.6367 48.0167 59.73 48.2267 59.87 48.4134C60.08 48.6701 60.36 48.8801 60.6633 49.0434C61.2 49.3234 61.76 49.5801 62.32 49.8134C63.58 50.2334 64.7933 50.8167 65.9133 51.5167C66.6833 52.0067 67.3133 52.6601 67.7567 53.4534C68.13 54.2001 68.3167 55.0167 68.2933 55.8567C68.3167 56.9534 67.99 58.0501 67.3833 58.9601C66.73 59.8934 65.82 60.6167 64.77 61.0367C63.6267 61.5267 62.2267 61.7834 60.5467 61.7834C59.4733 61.7834 58.4233 61.6901 57.3733 61.4801C56.5567 61.3401 55.74 61.0834 54.9933 60.7334C54.83 60.6401 54.7133 60.4767 54.7367 60.2901V56.2301C54.7367 56.1601 54.76 56.0667 54.83 56.0201C54.9 55.9734 54.97 55.9967 55.04 56.0434C55.95 56.5801 56.9067 56.9534 57.9333 57.1867C58.82 57.4201 59.7533 57.5367 60.6867 57.5367C61.5733 57.5367 62.2033 57.4201 62.6233 57.2101C62.9967 57.0467 63.2533 56.6501 63.2533 56.2301C63.2533 55.9034 63.0667 55.6001 62.6933 55.2967C62.32 54.9934 61.55 54.6434 60.4067 54.2001C59.2167 53.7801 58.12 53.2201 57.0933 52.5201C56.37 52.0067 55.7633 51.3301 55.32 50.5367C54.9467 49.7901 54.76 48.9734 54.7833 48.1567C54.7833 47.1534 55.0633 46.1967 55.5767 45.3334C56.16 44.4001 57.0233 43.6534 58.0267 43.1867C59.1233 42.6267 60.5 42.3701 62.1567 42.3701C63.1133 42.3701 64.0933 42.4401 65.05 42.5801C65.75 42.6734 66.4267 42.8601 67.0567 43.1167C67.15 43.1401 67.2433 43.2334 67.29 43.3267C67.3133 43.4201 67.3367 43.5134 67.3367 43.6067V47.4101C67.3367 47.5034 67.29 47.5967 67.22 47.6434C67.01 47.6901 66.8933 47.6901 66.8 47.6434Z" fill="#31A8FF"/>
</g>
<defs>
<clipPath id="clip0">
<rect width="56" height="54.6" fill="white" transform="translate(22 22.7)"/>
</clipPath>
</defs>
</svg>
