<svg width="100" height="100" viewBox="0 0 100 100" fill="none" xmlns="http://www.w3.org/2000/svg">
<g clip-path="url(#clip0)">
<path d="M49.7628 22.1252C35.5808 22.1252 36.4664 28.2754 36.4664 28.2754L36.4822 34.6469H50.0158V36.56H31.1067C31.1067 36.56 22.0316 35.5308 22.0316 49.8406C22.0316 64.1504 29.9526 63.643 29.9526 63.643H34.6798V57.0027C34.6798 57.0027 34.425 49.0817 42.4743 49.0817H55.8972C55.8972 49.0817 63.4387 49.2036 63.4387 41.7932V29.5402C63.4387 29.5402 64.5837 22.1252 49.7628 22.1252ZM42.3004 26.4098C43.6469 26.4098 44.7352 27.4981 44.7352 28.8446C44.7352 30.191 43.6469 31.2793 42.3004 31.2793C40.9539 31.2793 39.8656 30.191 39.8656 28.8446C39.8656 27.4981 40.9539 26.4098 42.3004 26.4098Z" fill="url(#paint0_linear)"/>
<path d="M50.1656 77.6995C64.3477 77.6995 63.462 71.5493 63.462 71.5493L63.4462 65.1777H49.9126V63.2647H68.8217C68.8217 63.2647 77.8968 64.2939 77.8968 49.984C77.8968 35.6742 69.9759 36.1817 69.9759 36.1817H65.2486V42.822C65.2486 42.822 65.5034 50.7429 57.4541 50.7429H44.0312C44.0312 50.7429 36.4897 50.621 36.4897 58.0315V70.2844C36.4897 70.2844 35.3447 77.6995 50.1656 77.6995ZM57.6281 73.4149C56.2816 73.4149 55.1933 72.3266 55.1933 70.9801C55.1933 69.6336 56.2816 68.5453 57.6281 68.5453C58.9745 68.5453 60.0628 69.6336 60.0628 70.9801C60.0628 72.3266 58.9745 73.4149 57.6281 73.4149Z" fill="url(#paint1_linear)"/>
</g>
<defs>
<linearGradient id="paint0_linear" x1="27.4004" y1="27.1239" x2="55.0851" y2="54.5325" gradientUnits="userSpaceOnUse">
<stop stop-color="#387EB8"/>
<stop offset="1" stop-color="#366994"/>
</linearGradient>
<linearGradient id="paint1_linear" x1="44.3933" y1="44.7239" x2="74.1238" y2="72.8291" gradientUnits="userSpaceOnUse">
<stop stop-color="#FFE052"/>
<stop offset="1" stop-color="#FFC331"/>
</linearGradient>
<clipPath id="clip0">
<rect width="56" height="55.7812" fill="white" transform="translate(22 22.1094)"/>
</clipPath>
</defs>
</svg>
