<svg width="100" height="100" viewBox="0 0 100 100" fill="none" xmlns="http://www.w3.org/2000/svg">
<path d="M49.9533 54.648C52.541 54.648 54.6387 52.5503 54.6387 49.9627C54.6387 47.375 52.541 45.2773 49.9533 45.2773C47.3657 45.2773 45.268 47.375 45.268 49.9627C45.268 52.5503 47.3657 54.648 49.9533 54.648Z" fill="#00D8FF"/>
<path d="M49.9534 60.6961C43.3734 60.6961 37.624 59.9214 33.3214 58.4467C30.5307 57.4947 28.16 56.2254 26.4707 54.7787C24.6787 53.248 23.7267 51.5774 23.7267 49.9627C23.7267 46.864 27.124 43.8307 32.8267 41.852C37.4934 40.228 43.5787 39.3227 49.944 39.3227C56.1974 39.3227 62.1987 40.2 66.8374 41.8054C69.5534 42.7387 71.84 43.952 73.464 45.296C75.228 46.7707 76.1614 48.3854 76.1614 49.9627C76.1614 53.1827 72.3627 56.4401 66.24 58.4654C61.9094 59.9027 56.1227 60.6961 49.9534 60.6961ZM49.9534 41.5627C43.9147 41.5627 37.9414 42.44 33.5734 43.9614C28.328 45.7907 25.976 48.292 25.976 49.9627C25.976 51.6987 28.5054 54.4334 34.0494 56.328C38.1187 57.7187 43.6254 58.4561 49.9534 58.4561C55.8894 58.4561 61.424 57.7094 65.54 56.3374C71.2987 54.424 73.9307 51.6894 73.9307 49.9627C73.9307 49.076 73.2587 48.0307 72.036 47.0134C70.6267 45.8374 68.5734 44.764 66.1187 43.9147C61.704 42.4027 55.964 41.5627 49.9534 41.5627Z" fill="#00D8FF"/>
<path d="M39.3227 73.3147C38.3707 73.3147 37.5307 73.1094 36.8214 72.6987C34.1427 71.1494 33.2094 66.688 34.3387 60.7614C35.2627 55.8987 37.5214 50.1867 40.704 44.6707C43.8307 39.2574 47.5827 34.4974 51.288 31.2774C53.4534 29.392 55.6467 28.0107 57.6254 27.2827C59.7814 26.4894 61.648 26.4894 63.0107 27.2734C65.8014 28.8787 66.7254 33.8067 65.4187 40.116C64.4947 44.596 62.292 50 59.212 55.348C55.9267 61.0414 52.38 65.6334 48.9547 68.6294C46.7334 70.5707 44.4467 71.9894 42.356 72.7267C41.264 73.1187 40.2374 73.3147 39.3227 73.3147ZM41.6654 45.2307L42.636 45.7907C39.6214 51.0174 37.3907 56.6267 36.532 61.1814C35.496 66.6414 36.4947 69.9267 37.932 70.7574C38.2867 70.9627 38.7534 71.0747 39.3227 71.0747C41.18 71.0747 44.1014 69.8987 47.48 66.9494C50.7187 64.1214 54.1067 59.716 57.2707 54.2374C60.2387 49.0947 62.348 43.924 63.2254 39.6774C64.448 33.732 63.3934 30.092 61.8907 29.224C61.1254 28.7854 59.884 28.8414 58.3907 29.392C56.664 30.0267 54.7134 31.268 52.7534 32.976C49.2347 36.0374 45.6414 40.592 42.636 45.8L41.6654 45.2307Z" fill="#00D8FF"/>
<path d="M60.584 73.3427C58.0453 73.3427 54.8253 71.812 51.4653 68.9187C47.7133 65.6893 43.896 60.8827 40.704 55.3667C37.568 49.9533 35.328 44.3253 34.3853 39.5C33.8347 36.6813 33.732 34.096 34.0867 32.0147C34.4787 29.7467 35.4027 28.132 36.7747 27.3387C39.556 25.724 44.288 27.3853 49.104 31.6693C52.52 34.7027 56.104 39.3133 59.1933 44.652C62.488 50.3453 64.7 55.712 65.5773 60.1733C66.1467 63.0667 66.24 65.7547 65.8387 67.9387C65.4093 70.2627 64.4387 71.9147 63.0387 72.7267C62.3387 73.1373 61.508 73.3427 60.584 73.3427ZM42.6453 54.2467C45.6693 59.4733 49.4213 64.2053 52.9307 67.22C57.14 70.8413 60.4813 71.6253 61.928 70.7853C63.4307 69.9173 64.532 66.3613 63.3933 60.612C62.5533 56.3933 60.4347 51.26 57.2613 45.7813C54.284 40.6387 50.8587 36.224 47.62 33.3493C43.084 29.3173 39.4067 28.412 37.904 29.28C37.1387 29.7187 36.5693 30.8293 36.2987 32.3973C35.9907 34.208 36.084 36.5227 36.588 39.0707C37.484 43.6533 39.6307 49.0387 42.6453 54.2467Z" fill="#00D8FF"/>
</svg>
