<svg width="100" height="100" viewBox="0 0 100 100" fill="none" xmlns="http://www.w3.org/2000/svg">
<path d="M60.8019 60.5481C56.8644 68.5981 49.9694 74.0144 40.8475 75.795C39.4489 76.1376 38.0131 76.3052 36.5731 76.2937C31.3231 76.2937 26.5106 74.1062 24.1744 70.5231C21.0375 65.75 19.97 55.6306 30.3125 48.145C30.5225 49.2869 30.9513 50.8531 31.2356 51.7806C29.2053 53.289 27.5435 55.238 26.375 57.4812C24.45 61.2612 24.6644 65.0369 26.9438 68.5281C28.5188 70.8819 31.0125 72.3125 34.2194 72.75C38.2249 73.257 42.2883 72.4917 45.835 70.5625C51.3956 67.64 55.1013 64.1487 57.525 59.3756C56.8397 58.6674 56.434 57.7349 56.3831 56.7506C56.3465 55.6944 56.7304 54.6668 57.4505 53.8934C58.1707 53.1199 59.1683 52.6637 60.2244 52.625H60.3731C61.4004 52.6198 62.3903 53.0098 63.138 53.7141C63.8858 54.4185 64.3341 55.3833 64.3903 56.409C64.4465 57.4347 64.1063 58.4428 63.44 59.2246C62.7737 60.0065 61.8323 60.5022 60.8106 60.6094L60.8019 60.5481ZM73.345 51.7106C78.6869 57.7656 78.8313 64.8925 76.7663 69.0269C74.8413 72.8025 69.7663 76.5825 62.9413 76.5825C59.7552 76.5175 56.621 75.7638 53.7538 74.3731C54.7556 73.66 56.1775 72.5181 56.9606 71.805C59.1717 72.7629 61.5512 73.2715 63.9606 73.3012C68.3794 73.3012 71.7263 71.2362 73.7213 67.4606C75.0031 64.9669 75.0775 62.0444 73.8656 59.0519C72.3786 55.2867 69.7325 52.092 66.31 49.93C61.8198 46.9031 56.5264 45.2895 51.1113 45.2969H49.8294C49.5305 45.9873 49.0442 46.5803 48.4256 47.0087C47.8071 47.4371 47.0809 47.6837 46.3294 47.7206H46.1938C45.1543 47.7078 44.1608 47.2903 43.4243 46.5568C42.6877 45.8233 42.2661 44.8316 42.249 43.7922C42.2319 42.7528 42.6207 41.7477 43.3328 40.9904C44.0448 40.2331 45.0241 39.7832 46.0625 39.7362H46.2069C46.9305 39.7368 47.6401 39.9367 48.2575 40.3141C48.8749 40.6916 49.3764 41.2318 49.7069 41.8756H50.8488C59.9488 41.8756 67.9375 45.3669 73.345 51.7106V51.7106ZM37.1419 61.7731C37.067 61.0466 37.243 60.3163 37.6406 59.7037C33.6506 52.7912 31.5156 44.0281 34.7925 34.9062C37.1419 28.0506 43.0569 23.4175 49.4706 23.4175C56.3131 23.4175 63.44 29.4069 64.2931 40.9481C63.2256 40.5937 61.6681 40.0731 60.7319 39.8806C60.5 36.105 57.3106 26.6987 49.755 26.8387C47.0469 26.9131 43.0569 28.195 41.005 30.8287C38.4669 33.9727 36.9904 37.8401 36.7875 41.8756C36.3066 47.409 37.6048 52.9514 40.4931 57.6956C40.6526 57.6373 40.8226 57.6135 40.9919 57.6256H41.1319C42.1901 57.6065 43.2126 58.0085 43.9744 58.7432C44.7362 59.4779 45.1749 60.4852 45.1941 61.5434C45.2132 62.6016 44.8112 63.6241 44.0765 64.3859C43.3417 65.1477 42.3345 65.5865 41.2763 65.6056H41.1319C40.0995 65.6019 39.1084 65.2 38.3651 64.4836C37.6218 63.7672 37.1836 62.7915 37.1419 61.76V61.7731Z" fill="#764ABC"/>
</svg>
