<svg width="100" height="100" viewBox="0 0 100 100" fill="none" xmlns="http://www.w3.org/2000/svg">
<path fill-rule="evenodd" clip-rule="evenodd" d="M36 44.4C37.8664 36.9336 42.5336 33.2 50 33.2C61.2 33.2 62.6 41.6 68.2 43C71.9336 43.9336 75.2 42.5336 78 38.8C76.1336 46.2664 71.4664 50 64 50C52.8 50 51.4 41.6 45.8 40.2C42.0664 39.2664 38.8 40.6664 36 44.4ZM22 61.2C23.8664 53.7336 28.5336 50 36 50C47.2 50 48.6 58.4 54.2 59.8C57.9336 60.7336 61.2 59.3336 64 55.6C62.1336 63.0664 57.4664 66.8 50 66.8C38.8 66.8 37.4 58.4 31.8 57C28.0664 56.0664 24.8 57.4664 22 61.2Z" fill="url(#paint0_linear)"/>
<defs>
<linearGradient id="paint0_linear" x1="22" y1="3.33364" x2="78" y2="96.6664" gradientUnits="userSpaceOnUse">
<stop stop-color="#2383AE"/>
<stop offset="1" stop-color="#6DD7B9"/>
</linearGradient>
</defs>
</svg>
