<svg width="100" height="100" viewBox="0 0 100 100" fill="none" xmlns="http://www.w3.org/2000/svg">
<path fill-rule="evenodd" clip-rule="evenodd" d="M28.7624 29.0335C28.8894 28.9112 29.0721 28.8659 29.2415 28.9147L72.02 41.2309C72.1897 41.2797 72.3204 41.4154 72.3628 41.5867C72.4052 41.7581 72.353 41.9391 72.2258 42.0614L40.1186 72.946C39.9914 73.0684 39.8086 73.1135 39.6391 73.0645C39.4695 73.0156 39.339 72.8798 39.2967 72.7085L28.6254 29.5077C28.5831 29.3365 28.6353 29.1558 28.7624 29.0335ZM29.7893 30.1003L40.0505 71.6409L70.9239 41.9432L29.7893 30.1003Z" fill="black"/>
<path fill-rule="evenodd" clip-rule="evenodd" d="M50.6233 35.0741C50.7929 35.1231 50.9234 35.2589 50.9657 35.4303L56.2976 57.0371C56.3398 57.2083 56.2876 57.3891 56.1605 57.5113C56.0334 57.6336 55.8507 57.6788 55.6813 57.63L34.3039 51.4699C34.1343 51.421 34.0037 51.2854 33.9613 51.1141C33.9188 50.9428 33.971 50.7619 34.0981 50.6395L50.1437 35.1928C50.2709 35.0704 50.4537 35.0251 50.6233 35.0741ZM35.3996 50.7577L55.1339 56.4443L50.2119 36.4983L35.3996 50.7577Z" fill="black"/>
<path fill-rule="evenodd" clip-rule="evenodd" d="M42.191 42.8366C42.3179 42.7143 42.5004 42.669 42.6699 42.7176L53.2905 45.7664C53.4602 45.8151 53.5909 45.9506 53.6335 46.1219C53.6761 46.2932 53.6241 46.4742 53.497 46.5967L45.5246 54.2814C45.3975 54.404 45.2146 54.4493 45.0449 54.4004C44.8752 54.3514 44.7446 54.2156 44.7023 54.0442L42.0541 43.3106C42.0118 43.1395 42.064 42.9588 42.191 42.8366ZM43.2175 43.9025L45.4561 52.9755L52.1951 46.4796L43.2175 43.9025Z" fill="black"/>
<path fill-rule="evenodd" clip-rule="evenodd" d="M40.0213 31.9974C40.1909 32.0464 40.3216 32.1822 40.3639 32.3536L43.0121 43.0871C43.0543 43.2583 43.0022 43.4389 42.8752 43.5612C42.7482 43.6835 42.5657 43.7288 42.3963 43.6802L31.7757 40.6314C31.606 40.5827 31.4752 40.4471 31.4326 40.2758C31.39 40.1046 31.4421 39.9236 31.5692 39.8011L39.5416 32.1163C39.6687 31.9938 39.8516 31.9484 40.0213 31.9974ZM32.871 39.9181L41.8487 42.4953L39.6101 33.4223L32.871 39.9181Z" fill="black"/>
<path fill-rule="evenodd" clip-rule="evenodd" d="M61.2616 38.116C61.4313 38.165 61.5619 38.3008 61.6042 38.4722L64.2525 49.2057C64.2947 49.3769 64.2425 49.5575 64.1156 49.6798C63.9886 49.802 63.8061 49.8474 63.6367 49.7988L53.016 46.75C52.8464 46.7013 52.7156 46.5657 52.673 46.3944C52.6304 46.2231 52.6825 46.0421 52.8095 45.9196L60.7819 38.2349C60.9091 38.1124 61.092 38.067 61.2616 38.116ZM54.1114 46.0367L63.089 48.6139L60.8505 39.5408L54.1114 46.0367Z" fill="black"/>
<path fill-rule="evenodd" clip-rule="evenodd" d="M45.32 53.4588C45.4897 53.5077 45.6203 53.6435 45.6626 53.815L48.3108 64.5485C48.3531 64.7196 48.3009 64.9003 48.1739 65.0226C48.047 65.1448 47.8645 65.1902 47.6951 65.1415L37.0744 62.0927C36.9047 62.044 36.774 61.9085 36.7314 61.7372C36.6888 61.5659 36.7408 61.3849 36.8679 61.2624L44.8403 53.5777C44.9675 53.4552 45.1503 53.4098 45.32 53.4588ZM38.1698 61.3795L47.1474 63.9566L44.9088 54.8836L38.1698 61.3795Z" fill="black"/>
</svg>
