<svg width="100" height="100" viewBox="0 0 100 100" fill="none" xmlns="http://www.w3.org/2000/svg">
<path d="M78 32.6365C75.9175 33.55 73.6985 34.1555 71.385 34.4495C73.765 33.0285 75.5815 30.7955 76.4355 28.104C74.2165 29.427 71.7665 30.3615 69.1555 30.883C67.0485 28.6395 64.0455 27.25 60.7695 27.25C54.4135 27.25 49.2965 32.409 49.2965 38.7335C49.2965 39.6435 49.3735 40.5185 49.5625 41.3515C40.018 40.886 31.5725 36.3115 25.899 29.343C24.9085 31.0615 24.3275 33.0285 24.3275 35.146C24.3275 39.122 26.375 42.6465 29.427 44.687C27.5825 44.652 25.773 44.1165 24.24 43.273C24.24 43.308 24.24 43.3535 24.24 43.399C24.24 48.978 28.2195 53.612 33.438 54.6795C32.5035 54.935 31.485 55.0575 30.428 55.0575C29.693 55.0575 28.951 55.0155 28.2545 54.8615C29.742 59.408 33.963 62.7505 38.982 62.859C35.076 65.9145 30.1165 67.7555 24.7475 67.7555C23.806 67.7555 22.903 67.7135 22 67.598C27.0855 70.8775 33.1125 72.75 39.612 72.75C60.738 72.75 72.288 55.25 72.288 40.081C72.288 39.5735 72.2705 39.0835 72.246 38.597C74.5245 36.98 76.439 34.9605 78 32.6365Z" fill="#03A9F4"/>
</svg>
