<svg width="48" height="48" viewBox="0 0 48 48" fill="none" xmlns="http://www.w3.org/2000/svg">
<path fill-rule="evenodd" clip-rule="evenodd" d="M24 42.5C34.2173 42.5 42.5 34.2173 42.5 24C42.5 13.7827 34.2173 5.5 24 5.5C13.7827 5.5 5.5 13.7827 5.5 24C5.5 34.2173 13.7827 42.5 24 42.5ZM24 44.5C35.3218 44.5 44.5 35.3218 44.5 24C44.5 12.6782 35.3218 3.5 24 3.5C12.6782 3.5 3.5 12.6782 3.5 24C3.5 35.3218 12.6782 44.5 24 44.5Z" fill="#8D7F7F"/>
<path d="M34.66 16.9173C35.8552 16.2028 36.7496 15.0777 37.176 13.752C36.0529 14.4184 34.824 14.8878 33.5427 15.14C31.7661 13.2607 28.9513 12.8034 26.6712 14.0235C24.3911 15.2437 23.21 17.8393 23.788 20.36C19.1875 20.129 14.9013 17.9559 11.996 14.3813C10.4798 16.9966 11.2546 20.3397 13.7667 22.0213C12.8583 21.9921 11.97 21.7461 11.176 21.304C11.176 21.328 11.176 21.352 11.176 21.376C11.1765 24.1001 13.0965 26.4468 15.7667 26.9867C14.9241 27.2159 14.0403 27.2496 13.1827 27.0853C13.9336 29.4151 16.0808 31.0111 18.528 31.0587C16.5011 32.6495 13.998 33.5123 11.4214 33.508C10.9646 33.5087 10.5083 33.4824 10.0547 33.4293C12.6712 35.1107 15.7165 36.0031 18.8267 36C23.1537 36.0297 27.312 34.3239 30.3716 31.264C33.4312 28.2041 35.1368 24.0456 35.1067 19.7187C35.1067 19.4707 35.1009 19.224 35.0893 18.9787C36.21 18.1688 37.1771 17.1655 37.9453 16.016C36.9013 16.4787 35.794 16.7826 34.66 16.9173Z" fill="#8D7F7F"/>
</svg>
